<?xml version="1.0" encoding="UTF-8" standalone="no"?>
<!DOCTYPE svg PUBLIC "-//W3C//DTD SVG 1.1//EN" "http://www.w3.org/Graphics/SVG/1.1/DTD/svg11.dtd">
<svg width="100%" height="100%" viewBox="0 0 1024 914" version="1.1" xmlns="http://www.w3.org/2000/svg" xmlns:xlink="http://www.w3.org/1999/xlink" xml:space="preserve" xmlns:serif="http://www.serif.com/" style="fill-rule:evenodd;clip-rule:evenodd;stroke-linejoin:round;stroke-miterlimit:2;">
    <g transform="matrix(1.615,0,0,1.615,-290.716,-344.196)">
        <path d="M673.517,213.227C685.533,212.598 698.683,214.899 709.962,219.015C726.859,225.181 743.738,236.877 753.312,252.401C756.234,257.141 759.059,265.013 763.865,268.118C769.22,271.577 776.23,273.321 782.146,275.685C790.672,279.09 809.882,288.165 813.51,297.156C814.081,298.571 814.331,299.225 813.68,300.58C809.232,304.068 781.853,311.755 774.387,314.252C743.446,324.6 750.242,385.173 750.73,410.288C750.901,422.544 750.419,434.8 749.286,447.005C746.896,473.435 740.679,499.741 728.656,523.51C702.237,575.736 654.405,619.254 601.368,643.487C590.818,648.307 580.01,651.814 569.007,655.406C572.965,660.883 577.638,665.969 582.033,671.104L607.008,699.963L630.64,727.479C636.285,734.082 641.897,741.033 648.118,747.098C650.839,749.751 654.137,752.494 657.797,753.645C674.318,758.839 693.027,753.979 709.945,756.972C712.553,758.969 714.617,761.033 715.679,764.216C716.573,766.898 716.588,769.741 715.266,772.288C714.219,774.304 711.469,777.133 709.183,777.574C702.671,778.828 692.239,777.983 685.444,778.007L628.617,778.173L504.377,778.399C483.376,778.409 462.054,779.261 441.104,778.281C438.37,778.153 436.437,777.923 434.184,776.23C431.804,774.441 430.362,771.747 430.074,768.796C429.79,765.883 430.645,762.845 432.586,760.628C434.041,758.95 436.019,757.81 438.201,757.392C445.087,756.098 453.365,756.949 460.393,756.977C478.994,757.051 498.034,757.885 516.584,756.792C512.867,745.759 504.216,730.87 498.786,719.953C490.781,703.86 483.414,686.9 474.433,671.353C472.524,668.049 470.029,663.885 467.068,661.426C463.137,658.16 433.758,652.134 427.012,650.456C413.854,647.185 386.252,638.202 373.481,640.352C361.973,642.288 339.679,660.454 329.457,667.699L253.425,721.509C237.121,733.064 220.742,745.63 203.453,755.628C200.038,757.602 196.14,759.669 192.155,760.025C188.762,760.361 185.38,759.3 182.786,757.088C180.988,755.534 180.152,753.627 180.034,751.268C179.899,748.573 180.324,746.498 181.708,744.187C185.159,738.426 191.091,733.513 195.8,728.738C203.229,721.205 210.755,713.741 217.911,705.948C238.365,684.976 258.662,663.85 278.798,642.573C287.654,633.382 296.337,623.403 305.84,614.898C308.457,612.557 311.708,610.005 315.048,608.82C321.415,606.562 334.301,606.266 341.608,605.344C363.14,602.607 384.649,599.684 406.131,596.575C482.041,585.029 584.482,561.127 632.378,495.563C647.601,474.725 657.2,447.396 652.99,421.435C649.984,402.892 640.93,389.512 625.865,378.618C633.844,389.958 639.046,400.277 641.06,414.186C644.794,439.979 636.455,465.314 621.017,485.887C570.2,553.607 468.482,572.745 390.007,585.066C363.129,589.348 336.2,593.301 309.225,596.925C299.778,598.151 290.274,598.894 280.843,600.246C289.039,590.394 297.806,580.951 306.381,571.426C322.497,553.524 338.716,535.716 355.038,518.002C393.899,474.769 433.727,432.414 474.491,390.97C486.883,378.447 499.556,366.204 512.501,354.253C525.407,342.412 538.716,331.029 550.546,318.08C569.365,297.482 577.024,271.345 596.12,249.93C617.108,226.391 642.314,215.124 673.517,213.227ZM627.606,756.707C625.419,751.686 602.29,726.644 596.836,720.358C582.214,703.504 568.129,685.911 552.754,669.73C550.773,667.645 548.07,664.566 545.334,663.597C538.069,661.023 529.087,662.023 521.505,661.756C512.26,661.432 503.118,660.982 493.86,660.922C501.241,678.139 510.174,694.873 518.469,711.67C523.94,722.748 528.949,735.39 535.929,745.567C538,748.586 540.249,751.372 543.721,752.808C546.894,754.121 550.327,754.907 553.731,755.301C568.382,756.997 583.441,756.48 598.18,756.754C606.999,756.918 619.017,758.075 627.606,756.707ZM701.251,294.218C709.624,292.98 715.42,285.205 714.215,276.827C713.01,268.449 705.258,262.623 696.875,263.795C688.446,264.974 682.58,272.778 683.792,281.203C685.004,289.627 692.831,295.463 701.251,294.218Z" style="fill:rgb(1,98,157);fill-rule:nonzero;"/>
    </g>
</svg>
